<svg width="160" height="160" viewBox="0 0 160 160" fill="none" xmlns="http://www.w3.org/2000/svg">
<path d="M79.9886 156.571C40.2466 148.617 11.4286 111.293 11.4286 67.7976V28.2105C11.4286 26.6106 11.9542 25.0564 12.9141 23.7764C13.8739 22.4964 15.2451 21.5593 16.7991 21.1251L75.7836 4.02857C78.526 3.2286 81.4512 3.2286 84.2164 4.02857L143.201 21.1251C144.755 21.5822 146.103 22.4964 147.086 23.7764C148.046 25.0564 148.571 26.6106 148.571 28.2105V67.7976C148.549 111.316 119.731 148.663 79.9886 156.571Z" fill="#69B42E"/>
<path fill-rule="evenodd" clip-rule="evenodd" d="M79.8744 3.42908C78.4938 3.43977 77.1171 3.63961 75.7836 4.0286L16.7991 21.1251C15.2451 21.5594 13.8739 22.4965 12.9141 23.7764C11.9542 25.0564 11.4286 26.6106 11.4286 28.2106V67.7976C11.4286 111.251 40.1914 148.546 79.8744 156.549V3.42908Z" fill="white" fill-opacity="0.15"/>
<path fill-rule="evenodd" clip-rule="evenodd" d="M61.7142 44.5034C61.7142 41.9787 63.7609 39.932 66.2857 39.932H93.7142C96.239 39.932 98.2857 41.9787 98.2857 44.5034V103.932C98.2857 106.457 96.239 108.503 93.7142 108.503H66.2857C63.7609 108.503 61.7142 106.457 61.7142 103.932V44.5034ZM82.0571 104.618C82.0571 105.754 81.1361 106.675 79.9999 106.675C78.8638 106.675 77.9428 105.754 77.9428 104.618C77.9428 103.482 78.8638 102.561 79.9999 102.561C81.1361 102.561 82.0571 103.482 82.0571 104.618ZM66.7172 42.2177H71.07V43.132C71.07 43.8894 71.684 44.5034 72.4415 44.5034H86.6129C87.3703 44.5034 87.9843 43.8894 87.9843 43.132V42.2177H93.2827C94.7834 42.2177 96 43.4343 96 44.935V98.9291C96 100.43 94.7834 101.646 93.2827 101.646H66.7172C65.2165 101.646 63.9999 100.43 63.9999 98.9291V44.935C63.9999 43.4343 65.2165 42.2177 66.7172 42.2177Z" fill="white"/>
<path fill-rule="evenodd" clip-rule="evenodd" d="M71.07 42.2177H66.7172C65.2165 42.2177 63.9999 43.4343 63.9999 44.935V98.9291C63.9999 100.43 65.2165 101.646 66.7172 101.646H93.2827C94.7834 101.646 96 100.43 96 98.9291V44.935C96 43.4343 94.7834 42.2177 93.2827 42.2177H87.9843V43.132C87.9843 43.8894 87.3703 44.5034 86.6129 44.5034H72.4415C71.684 44.5034 71.07 43.8894 71.07 43.132V42.2177Z" fill="white" fill-opacity="0.35"/>
</svg>
